<svg version="1.1" id="Layer_1" xmlns="http://www.w3.org/2000/svg" xmlns:xlink="http://www.w3.org/1999/xlink" x="0px" y="0px"
	 width="100%" viewBox="0 0 212 150" enable-background="new 0 0 212 150" xml:space="preserve">
<path fill="#702963" opacity="1.000000" stroke="none" 
	d="
M148.000000,151.000000 
	C98.700409,151.000000 49.900822,151.000000 1.050616,151.000000 
	C1.050616,101.068336 1.050616,51.136608 1.050616,1.102440 
	C71.549408,1.102440 142.099014,1.102440 212.824310,1.102440 
	C212.824310,50.999489 212.824310,100.999702 212.824310,151.000000 
	C191.470245,151.000000 169.985123,151.000000 148.000000,151.000000 
M96.656334,122.058189 
	C96.656334,122.058189 96.899948,122.035370 97.665253,121.705643 
	C97.665253,111.251083 97.665253,100.796516 97.665253,90.529434 
	C101.399872,89.942474 104.304001,88.992798 107.161087,89.117889 
	C124.336021,89.869865 140.733398,75.512482 142.007584,58.385963 
	C143.984085,31.819950 125.251869,15.152867 98.714943,15.454981 
	C94.195412,15.506433 89.444817,17.702074 85.270554,19.828827 
	C80.310333,22.356020 79.379112,27.152845 80.447601,32.965572 
	C81.921371,32.011539 82.990822,31.319242 85.061798,29.978611 
	C83.412994,62.718761 83.038795,94.518089 87.336075,126.275589 
	C88.111000,125.596138 88.798508,124.993347 89.582130,124.306282 
	C89.905746,125.744003 90.173698,126.934410 90.283836,127.423744 
	C91.496735,125.474266 92.829727,123.331749 94.532967,120.594131 
	C94.864258,123.090157 95.076775,124.691277 95.289284,126.292397 
	C95.446022,126.291351 95.602753,126.290298 95.759491,126.289253 
	C95.977722,124.867188 96.195953,123.445114 96.656334,122.058189 
z"/>
<path fill="#FCFBFC" opacity="1.000000" stroke="none" 
	d="
M96.414185,122.023048 
	C96.195953,123.445114 95.977722,124.867188 95.759491,126.289253 
	C95.602753,126.290298 95.446022,126.291351 95.289284,126.292397 
	C95.076775,124.691277 94.864258,123.090157 94.532967,120.594131 
	C92.829727,123.331749 91.496735,125.474266 90.283836,127.423744 
	C90.173698,126.934410 89.905746,125.744003 89.582130,124.306282 
	C88.798508,124.993347 88.111000,125.596138 87.336075,126.275589 
	C83.038795,94.518089 83.412994,62.718761 85.061798,29.978611 
	C82.990822,31.319242 81.921371,32.011539 80.447601,32.965572 
	C79.379112,27.152845 80.310333,22.356020 85.270554,19.828827 
	C89.444817,17.702074 94.195412,15.506433 98.714943,15.454981 
	C125.251869,15.152867 143.984085,31.819950 142.007584,58.385963 
	C140.733398,75.512482 124.336021,89.869865 107.161087,89.117889 
	C104.304001,88.992798 101.399872,89.942474 97.665253,90.529434 
	C97.665253,100.796516 97.665253,111.251083 97.300659,121.461227 
	C96.936058,119.308342 96.936058,117.399872 96.936058,115.491402 
	C96.672737,115.522034 96.409409,115.552666 96.146088,115.583298 
	C96.053284,116.048294 95.960480,116.513298 95.635925,117.067184 
	C95.559891,117.777740 95.715607,118.399414 95.932518,119.399414 
	C96.133865,120.526176 96.274017,121.274612 96.414185,122.023048 
M97.426559,34.270283 
	C97.426559,49.059849 97.426559,63.849419 97.426559,78.750809 
	C102.291245,77.955170 106.218796,77.371498 110.123642,76.662758 
	C120.355209,74.805695 127.857216,65.947052 128.001907,55.627808 
	C128.237061,38.856503 115.297218,27.968580 96.590332,29.195656 
	C96.829742,30.600233 97.069160,32.004810 97.426559,34.270283 
z"/>
<path fill="#763269" opacity="1.000000" stroke="none" 
	d="
M95.867676,116.978294 
	C95.960480,116.513298 96.053284,116.048294 96.146088,115.583298 
	C96.409409,115.552666 96.672737,115.522034 96.936058,115.491402 
	C96.936058,117.399872 96.936058,119.308342 96.917999,121.626091 
	C96.899948,122.035370 96.656334,122.058189 96.535255,122.040619 
	C96.274017,121.274612 96.133865,120.526176 96.004410,119.061424 
	C95.965965,117.889503 95.916824,117.433899 95.867676,116.978294 
z"/>
<path fill="#712A64" opacity="1.000000" stroke="none" 
	d="
M97.367569,33.839836 
	C97.069160,32.004810 96.829742,30.600233 96.589508,29.195778 
	C115.297218,27.968580 128.237061,38.856503 128.001907,55.627808 
	C127.857216,65.947052 120.355209,74.805695 110.123642,76.662758 
	C106.218796,77.371498 102.291245,77.955170 97.426559,78.750809 
	C97.426559,63.849419 97.426559,49.059849 97.367569,33.839836 
z"/>
<path fill="#EBE1E9" opacity="1.000000" stroke="none" 
	d="
M95.635925,117.067184 
	C95.916824,117.433899 95.965965,117.889503 95.943222,118.683098 
	C95.715607,118.399414 95.559891,117.777740 95.635925,117.067184 
z"/>
</svg>